<svg xmlns="http://www.w3.org/2000/svg" viewBox="0 0 700.38 252.25"><g fill="#5bc0eb"><path d="M182.75 32.63q0 10.13-16.87 40.87-4.75 8.5-10.13 16.88-2.62 4.25-5.12 8t-4.94 7.31c-1.63 2.37-3.23 4.75-4.81 7.12s-3.25 4.82-5 7.32q-3.63 5.37-7.44 10.81t-7.81 11.19q-7.87 11.49-12.75 19.12-4.87 7.88-8.75 15.56a62.37 62.37 0 00-5.38 14.44 57.63 57.63 0 01-14.87-2q-3.13-.87-10.63-15.75-3.75-7.5-7.87-16.25T51.88 138q-4.38-10.5-8.75-21t-8.75-21.37Q26 74.38 25.38 73 19.5 59 14.56 47.63T5.63 27.25A74.87 74.87 0 010 6.75Q3.12 0 9.25 0q3.5 0 8.63 3.63c.08.16 1 2.43 2.81 6.81l8.06 19.69q5.37 13 11.5 27.62t13 31.25q7 16.5 12.5 29.31t9.63 22.19q8.37 18.63 10.12 19.5 7.13-7.62 17.63-23.37 5.37-8 10.75-16.5t10.87-17.88q5.63-9.37 10-17.12T142.38 71q2.63-5.13 5.81-11.69t6.94-14.81q3.87-8.25 6.75-14.87t5-11.63q1.5-4.12 4.62-4.12 4.75 0 7.88 6.87 3.38 7.01 3.37 11.88zM312.5 144.63a233.7 233.7 0 01-20.87 14.5 218.74 218.74 0 01-22.38 12.12 147.71 147.71 0 01-22 8.31 72.27 72.27 0 01-19.75 3.07 51.25 51.25 0 01-18-2.94 32.74 32.74 0 01-13.37-9.19 41.73 41.73 0 01-8.38-15.94q-2.88-9.67-2.87-23.18a117.42 117.42 0 012.25-23.44 108.82 108.82 0 016.18-20.44 95.14 95.14 0 019.13-16.94 68.94 68.94 0 0111.12-12.81 48.46 48.46 0 0112.19-8.06 30.24 30.24 0 0122.69-1.13 20.32 20.32 0 017.37 4.69 19.64 19.64 0 014.44 7.13 26.15 26.15 0 011.5 9 28.58 28.58 0 01-1.31 7.75 46.68 46.68 0 01-4.81 10.37 105.37 105.37 0 01-9.63 13.19 168.09 168.09 0 01-15.75 16.06q-2.75 2.5-5.94 5.13c-2.12 1.75-4.31 3.45-6.56 5.12s-4.46 3.25-6.62 4.75-4.17 2.79-6 3.88a44.77 44.77 0 001.87 11.5 22.79 22.79 0 005.13 9 23.11 23.11 0 009.12 5.81 40.75 40.75 0 0013.88 2.06 63 63 0 0018.62-3.06 156 156 0 0019.88-7.75q10-4.69 19.5-10.31t17.5-10.88l1.56-.94a3.29 3.29 0 011.31-.56 2.57 2.57 0 012.06 1.38 6.5 6.5 0 01.94 3.75 7.7 7.7 0 01-.44 2.12 27.09 27.09 0 01-1.06 2.81 22.69 22.69 0 01-1.31 2.57 5.69 5.69 0 01-1.19 1.5zm-70.25-70.5a9.82 9.82 0 00-2.37-6.94 7.84 7.84 0 00-6-2.56 10.23 10.23 0 00-3.07.93 27.66 27.66 0 00-3.81 2.13 28.52 28.52 0 00-3.87 3.06 20.73 20.73 0 00-3.13 3.63 80.66 80.66 0 00-9.94 19.56 104 104 0 00-5.06 25.81q9.87-7.5 16.94-13.94a108.61 108.61 0 0011.56-12.06 48.71 48.71 0 006.63-10.44 22.81 22.81 0 002.12-9.18z"/><path d="M459.75 95.5q0 2-2.75 6.63a181 181 0 01-12.44 17.25q-7.44 9.24-16.5 18.56t-19.25 17.94a177.54 177.54 0 01-20.68 15.18 125.12 125.12 0 01-20.75 10.57 53.85 53.85 0 01-19.5 4H347q-21.37 0-32-12.25t-10.62-34.13a132.2 132.2 0 011.37-18.5 107.81 107.81 0 0114.19-39.94A103.1 103.1 0 01335 61.38a53.55 53.55 0 0114.5-10.57 33.24 33.24 0 0114.38-3.68 9.17 9.17 0 012.62.5 23.42 23.42 0 013.31 1.31 18.71 18.71 0 013.25 2 15.68 15.68 0 012.69 2.56 35.85 35.85 0 015.13 8.63 26.2 26.2 0 011.62 9.62 41.26 41.26 0 01-2 13.19 48.89 48.89 0 01-5.75 11.56 80.87 80.87 0 01-9.25 11.31q-5.5 5.7-12.62 12.32c-1.59 1.5-3.46 3.16-5.63 5s-4.5 3.75-7 5.75-5.08 4.08-7.75 6.25l-7.87 6.37q1 22.38 24.87 22.38 13.25 0 28.25-7a89.22 89.22 0 0013.75-8.07q6.38-4.56 12.5-9.31 3-2.37 6.63-5.62t7.43-6.88l7.63-7.25q3.81-3.63 7.19-6.87 2.12-2.13 4.56-4.5t5.19-5.13l6.75-6.75q6.12-5.37 8.87-5.37 1.5 0 1.5 2.37zM363.5 76.75a11 11 0 00-2-6.56 5.84 5.84 0 00-4.87-2.81 12.35 12.35 0 00-5.44 1.75 24.9 24.9 0 00-7.06 6.25 86.2 86.2 0 00-13 22.31 115.81 115.81 0 00-7.5 29.06q7.88-6.37 13.31-11.37t9.81-9.38q3-3 5.94-6.37a64.23 64.23 0 005.37-7.13 39.57 39.57 0 003.94-7.75 22.65 22.65 0 001.5-8z"/><path d="M557.06 89.5a12.33 12.33 0 01-2.93 3.88 11.08 11.08 0 01-3.88 2.18 13.33 13.33 0 01-4.12.69 17.53 17.53 0 01-4.19-.62 24.39 24.39 0 00-4.94-.75 32.84 32.84 0 00-11.69 2.68 97.54 97.54 0 00-13.93 6.94 136 136 0 00-13.88 9.5 87.87 87.87 0 00-11.37 10.38c-1.67 1.91-3.44 4-5.32 6.37s-3.68 4.79-5.43 7.38a75.17 75.17 0 00-4.69 7.87 33.38 33.38 0 00-2.94 7.75 17.5 17.5 0 00-.37 4.94q.12 2.94.5 6.37c.25 2.3.51 4.67.81 7.13a60.37 60.37 0 01.44 7.06c0 1.33 0 2.61-.07 3.81a17.88 17.88 0 01-.43 3.44 6 6 0 01-1.38 2.44 14.63 14.63 0 01-2.75 2.44 19.25 19.25 0 01-3.56 1.93 9.62 9.62 0 01-3.69.82 6.2 6.2 0 01-4.87-3 24 24 0 01-3.25-7.88 69.46 69.46 0 01-1.75-11.81q-.51-6.81-.5-14.81 0-2.38.12-7c.08-3.09.19-6.23.31-9.44s.25-6.11.38-8.69.19-4.17.19-4.75c.08-1.42.18-3.33.31-5.75s.29-5.06.5-7.94.45-5.81.75-8.81.6-5.75.94-8.25c.16-1 .33-2.46.5-4.37s.35-3.9.56-5.94.44-4 .69-5.88a34.5 34.5 0 01.75-4.18 12 12 0 011.68-3.5 24.57 24.57 0 013.19-3.88 19.5 19.5 0 014.19-3.19 9.64 9.64 0 014.81-1.31 9.79 9.79 0 014.31 1.06 8.63 8.63 0 012.69 2.25 7.83 7.83 0 011.38 2.75 10.32 10.32 0 01.37 2.57 13.2 13.2 0 01-.44 2.43c-.29 1.21-.68 2.63-1.18 4.25s-1 3.38-1.57 5.25-1 3.65-1.5 5.32-.85 3.16-1.18 4.5a13.26 13.26 0 00-.5 2.75c0 .66-.11 1.93-.32 3.81s-.42 4-.62 6.44-.42 4.93-.63 7.56-.31 4.94-.31 6.94v1.87a9.28 9.28 0 00.13 1.63q4.62-5.76 10.18-12t11.82-12.32q6.24-6.06 13-11.56a120.32 120.32 0 0113.68-9.69 74.8 74.8 0 0113.88-6.62 40.6 40.6 0 0113.56-2.44 14.75 14.75 0 016.56 1.63 17 17 0 014.69 3.56 14.33 14.33 0 012.75 4.19 9.89 9.89 0 01.88 3.62v.13a14.32 14.32 0 01-1.32 5.87zM700.38 78.13c0 1.41 0 3.06-.13 4.93s-.21 4-.37 6.44-.36 4.75-.57 7.25-.43 5.08-.68 7.75-.46 5-.63 7.06-.29 3.77-.37 5.19q-.89 17.13-3.63 35.19t-6.87 34.44q-6.63 27.12-19.25 46.37-12.75 19.5-35.25 19.5a81.23 81.23 0 01-29.75-5.87 70.52 70.52 0 01-25.13-16.13q-6.12-7.25-6.12-10a17.08 17.08 0 011.87-7.12q2-3.88 4.5-3.88a2.86 2.86 0 012.38 1.5 57.91 57.91 0 008.12 9.5Q605.12 235 631.75 235q10.5 0 18.38-10a68.11 68.11 0 007.06-10.5 102.26 102.26 0 005.44-11.75q2.37-6.12 4.25-12.5t3.37-13q1.25-6.12 1.94-9.75c.45-2.42.73-4 .81-4.87q.63-5.25.88-10.13a89.8 89.8 0 011-9.62q-3.51 1.62-14.38 8.25-6.37 3.87-11.62 7t-9.38 5.5a156.05 156.05 0 01-18.62 9.25q-10.5 4.37-17.25 4.37-11.76 0-18.13-9.37a37.54 37.54 0 01-6.37-21.63 114.44 114.44 0 011.87-19.5q1-5.37 2.06-10.06c.71-3.13 1.48-6.06 2.32-8.81s1.81-6 2.93-9.88 2.48-8.25 4.07-13.25a48.23 48.23 0 012.75-7.19 20.69 20.69 0 013.43-5.12 12 12 0 014.57-3.06 17.86 17.86 0 016.37-1c2.42 0 4.33 1.37 5.75 4.12a17.27 17.27 0 012 8 9 9 0 01-1.12 4.5c-.42.67-1 1.63-1.75 2.88s-1.71 2.79-2.88 4.62-2.08 3.36-2.75 4.56a13 13 0 00-1.25 2.82l-1.75 5.25c-.5 1.5-1 2.75-1.37 3.75s-.71 2.18-1.13 3.56-.92 3-1.5 4.81a72.08 72.08 0 00-2.31 9.81 61.53 61.53 0 00-.69 9.44 46.35 46.35 0 002 12.13q2.13 7.37 5.75 7.37 11 0 26.63-6.37a112.17 112.17 0 0028.25-16.88q12.61-10.38 15.25-20.87a21.06 21.06 0 00.75-4.5c.16-2 .31-4.23.43-6.69s.23-5 .32-7.69.18-5.23.31-7.69.27-4.66.44-6.62a19.63 19.63 0 01.75-4.44q3.24-11.51 10.5-11.5 6.87 0 8.5 3.5 1.74 3.75 1.75 11.88z"/></g></svg>
